<?xml version="1.0" encoding="UTF-8" standalone="no"?>
<!-- Created with Inkscape (http://www.inkscape.org/) -->

<svg
   xmlns:dc="http://purl.org/dc/elements/1.1/"
   xmlns:cc="http://creativecommons.org/ns#"
   xmlns:rdf="http://www.w3.org/1999/02/22-rdf-syntax-ns#"
   xmlns:svg="http://www.w3.org/2000/svg"
   xmlns="http://www.w3.org/2000/svg"
   xmlns:xlink="http://www.w3.org/1999/xlink"
   xmlns:sodipodi="http://sodipodi.sourceforge.net/DTD/sodipodi-0.dtd"
   xmlns:inkscape="http://www.inkscape.org/namespaces/inkscape"
   width="2000"
   height="2000"
   viewBox="0 0 529.16666 529.16666"
   version="1.1"
   id="svg8"
   inkscape:export-filename="/home/mike/Documents/g-designs/phone-fix/phonefix-logo-proto.png"
   inkscape:export-xdpi="96"
   inkscape:export-ydpi="96"
   inkscape:version="0.92.3 (2405546, 2018-03-11)"
   sodipodi:docname="phonefix-logo-proto.svg">
  <defs
     id="defs2">
    <linearGradient
       inkscape:collect="always"
       id="linearGradient4980">
      <stop
         style="stop-color:#000000;stop-opacity:1;"
         offset="0"
         id="stop4976" />
      <stop
         style="stop-color:#05ff00;stop-opacity:0.98642534"
         offset="1"
         id="stop4978" />
    </linearGradient>
    <linearGradient
       inkscape:collect="always"
       id="linearGradient4972">
      <stop
         style="stop-color:#000000;stop-opacity:1;"
         offset="0"
         id="stop4968" />
      <stop
         style="stop-color:#fd0004;stop-opacity:0.99547511"
         offset="1"
         id="stop4970" />
    </linearGradient>
    <filter
       inkscape:label="Combined Lighting"
       inkscape:menu="Bevels"
       inkscape:menu-tooltip="Basic specular bevel to use for building textures"
       style="color-interpolation-filters:sRGB;"
       id="filter4850">
      <feGaussianBlur
         stdDeviation="6"
         in="SourceGraphic"
         result="result0"
         id="feGaussianBlur4832" />
      <feDiffuseLighting
         lighting-color="rgb(255,255,255)"
         diffuseConstant="1"
         surfaceScale="4"
         result="result5"
         id="feDiffuseLighting4836">
        <feDistantLight
           elevation="45"
           azimuth="235"
           id="feDistantLight4834" />
      </feDiffuseLighting>
      <feComposite
         k1="1.4"
         in2="SourceGraphic"
         in="result5"
         result="fbSourceGraphic"
         operator="arithmetic"
         id="feComposite4838" />
      <feGaussianBlur
         result="result0"
         in="fbSourceGraphic"
         stdDeviation="6"
         id="feGaussianBlur4840" />
      <feSpecularLighting
         specularExponent="25"
         specularConstant="1"
         surfaceScale="4"
         lighting-color="rgb(255,255,255)"
         result="result1"
         in="result0"
         id="feSpecularLighting4844">
        <feDistantLight
           azimuth="235"
           elevation="45"
           id="feDistantLight4842" />
      </feSpecularLighting>
      <feComposite
         k3="1"
         k2="1"
         operator="arithmetic"
         in="fbSourceGraphic"
         in2="result1"
         result="result4"
         id="feComposite4846" />
      <feComposite
         operator="in"
         result="result2"
         in2="SourceGraphic"
         in="result4"
         id="feComposite4848" />
    </filter>
    <filter
       inkscape:label="Combined Lighting"
       inkscape:menu="Bevels"
       inkscape:menu-tooltip="Basic specular bevel to use for building textures"
       style="color-interpolation-filters:sRGB;"
       id="filter4870">
      <feGaussianBlur
         stdDeviation="6"
         in="SourceGraphic"
         result="result0"
         id="feGaussianBlur4852" />
      <feDiffuseLighting
         lighting-color="rgb(255,255,255)"
         diffuseConstant="1"
         surfaceScale="4"
         result="result5"
         id="feDiffuseLighting4856">
        <feDistantLight
           elevation="45"
           azimuth="235"
           id="feDistantLight4854" />
      </feDiffuseLighting>
      <feComposite
         k1="1.4"
         in2="SourceGraphic"
         in="result5"
         result="fbSourceGraphic"
         operator="arithmetic"
         id="feComposite4858" />
      <feGaussianBlur
         result="result0"
         in="fbSourceGraphic"
         stdDeviation="6"
         id="feGaussianBlur4860" />
      <feSpecularLighting
         specularExponent="25"
         specularConstant="1"
         surfaceScale="4"
         lighting-color="rgb(255,255,255)"
         result="result1"
         in="result0"
         id="feSpecularLighting4864">
        <feDistantLight
           azimuth="235"
           elevation="45"
           id="feDistantLight4862" />
      </feSpecularLighting>
      <feComposite
         k3="1"
         k2="1"
         operator="arithmetic"
         in="fbSourceGraphic"
         in2="result1"
         result="result4"
         id="feComposite4866" />
      <feComposite
         operator="in"
         result="result2"
         in2="SourceGraphic"
         in="result4"
         id="feComposite4868" />
    </filter>
    <filter
       inkscape:label="Combined Lighting"
       inkscape:menu="Bevels"
       inkscape:menu-tooltip="Basic specular bevel to use for building textures"
       style="color-interpolation-filters:sRGB;"
       id="filter4890">
      <feGaussianBlur
         stdDeviation="6"
         in="SourceGraphic"
         result="result0"
         id="feGaussianBlur4872" />
      <feDiffuseLighting
         lighting-color="rgb(255,255,255)"
         diffuseConstant="1"
         surfaceScale="4"
         result="result5"
         id="feDiffuseLighting4876">
        <feDistantLight
           elevation="45"
           azimuth="235"
           id="feDistantLight4874" />
      </feDiffuseLighting>
      <feComposite
         k1="1.4"
         in2="SourceGraphic"
         in="result5"
         result="fbSourceGraphic"
         operator="arithmetic"
         id="feComposite4878" />
      <feGaussianBlur
         result="result0"
         in="fbSourceGraphic"
         stdDeviation="6"
         id="feGaussianBlur4880" />
      <feSpecularLighting
         specularExponent="25"
         specularConstant="1"
         surfaceScale="4"
         lighting-color="rgb(255,255,255)"
         result="result1"
         in="result0"
         id="feSpecularLighting4884">
        <feDistantLight
           azimuth="235"
           elevation="45"
           id="feDistantLight4882" />
      </feSpecularLighting>
      <feComposite
         k3="1"
         k2="1"
         operator="arithmetic"
         in="fbSourceGraphic"
         in2="result1"
         result="result4"
         id="feComposite4886" />
      <feComposite
         operator="in"
         result="result2"
         in2="SourceGraphic"
         in="result4"
         id="feComposite4888" />
    </filter>
    <filter
       inkscape:label="Combined Lighting"
       inkscape:menu="Bevels"
       inkscape:menu-tooltip="Basic specular bevel to use for building textures"
       style="color-interpolation-filters:sRGB;"
       id="filter4910">
      <feGaussianBlur
         stdDeviation="6"
         in="SourceGraphic"
         result="result0"
         id="feGaussianBlur4892" />
      <feDiffuseLighting
         lighting-color="rgb(255,255,255)"
         diffuseConstant="1"
         surfaceScale="4"
         result="result5"
         id="feDiffuseLighting4896">
        <feDistantLight
           elevation="45"
           azimuth="235"
           id="feDistantLight4894" />
      </feDiffuseLighting>
      <feComposite
         k1="1.4"
         in2="SourceGraphic"
         in="result5"
         result="fbSourceGraphic"
         operator="arithmetic"
         id="feComposite4898" />
      <feGaussianBlur
         result="result0"
         in="fbSourceGraphic"
         stdDeviation="6"
         id="feGaussianBlur4900" />
      <feSpecularLighting
         specularExponent="25"
         specularConstant="1"
         surfaceScale="4"
         lighting-color="rgb(255,255,255)"
         result="result1"
         in="result0"
         id="feSpecularLighting4904">
        <feDistantLight
           azimuth="235"
           elevation="45"
           id="feDistantLight4902" />
      </feSpecularLighting>
      <feComposite
         k3="1"
         k2="1"
         operator="arithmetic"
         in="fbSourceGraphic"
         in2="result1"
         result="result4"
         id="feComposite4906" />
      <feComposite
         operator="in"
         result="result2"
         in2="SourceGraphic"
         in="result4"
         id="feComposite4908" />
    </filter>
    <filter
       inkscape:label="Combined Lighting"
       inkscape:menu="Bevels"
       inkscape:menu-tooltip="Basic specular bevel to use for building textures"
       style="color-interpolation-filters:sRGB;"
       id="filter4930">
      <feGaussianBlur
         stdDeviation="6"
         in="SourceGraphic"
         result="result0"
         id="feGaussianBlur4912" />
      <feDiffuseLighting
         lighting-color="rgb(255,255,255)"
         diffuseConstant="1"
         surfaceScale="4"
         result="result5"
         id="feDiffuseLighting4916">
        <feDistantLight
           elevation="45"
           azimuth="235"
           id="feDistantLight4914" />
      </feDiffuseLighting>
      <feComposite
         k1="1.4"
         in2="SourceGraphic"
         in="result5"
         result="fbSourceGraphic"
         operator="arithmetic"
         id="feComposite4918" />
      <feGaussianBlur
         result="result0"
         in="fbSourceGraphic"
         stdDeviation="6"
         id="feGaussianBlur4920" />
      <feSpecularLighting
         specularExponent="25"
         specularConstant="1"
         surfaceScale="4"
         lighting-color="rgb(255,255,255)"
         result="result1"
         in="result0"
         id="feSpecularLighting4924">
        <feDistantLight
           azimuth="235"
           elevation="45"
           id="feDistantLight4922" />
      </feSpecularLighting>
      <feComposite
         k3="1"
         k2="1"
         operator="arithmetic"
         in="fbSourceGraphic"
         in2="result1"
         result="result4"
         id="feComposite4926" />
      <feComposite
         operator="in"
         result="result2"
         in2="SourceGraphic"
         in="result4"
         id="feComposite4928" />
    </filter>
    <linearGradient
       inkscape:collect="always"
       xlink:href="#linearGradient4972"
       id="linearGradient4974"
       x1="365.19708"
       y1="-8.32868"
       x2="365.19708"
       y2="42.559437"
       gradientUnits="userSpaceOnUse"
       gradientTransform="translate(5.9845021e-6)" />
    <linearGradient
       inkscape:collect="always"
       xlink:href="#linearGradient4980"
       id="linearGradient4982"
       x1="361.45532"
       y1="70.996918"
       x2="361.45532"
       y2="44.056145"
       gradientUnits="userSpaceOnUse"
       gradientTransform="translate(5.9845021e-6,-5.2384827)" />
  </defs>
  <sodipodi:namedview
     id="base"
     pagecolor="#ffffff"
     bordercolor="#666666"
     borderopacity="1.0"
     inkscape:pageopacity="1"
     inkscape:pageshadow="2"
     inkscape:zoom="0.25"
     inkscape:cx="889.91907"
     inkscape:cy="956.152"
     inkscape:document-units="mm"
     inkscape:current-layer="layer1"
     showgrid="false"
     units="px"
     inkscape:window-width="1229"
     inkscape:window-height="960"
     inkscape:window-x="51"
     inkscape:window-y="27"
     inkscape:window-maximized="1" />
  <metadata
     id="metadata5">
    <rdf:RDF>
      <cc:Work
         rdf:about="">
        <dc:format>image/svg+xml</dc:format>
        <dc:type
           rdf:resource="http://purl.org/dc/dcmitype/StillImage" />
        <dc:title></dc:title>
      </cc:Work>
    </rdf:RDF>
  </metadata>
  <g
     inkscape:label="Layer 1"
     inkscape:groupmode="layer"
     id="layer1"
     transform="translate(0,232.16664)">
    <path
       sodipodi:type="star"
       id="path3717"
       sodipodi:sides="6"
       sodipodi:cx="285.28709"
       sodipodi:cy="-474.00117"
       sodipodi:r1="157.81648"
       sodipodi:r2="136.6731"
       sodipodi:arg1="0.52359878"
       sodipodi:arg2="1.0471976"
       inkscape:flatsided="true"
       inkscape:rounded="0"
       inkscape:randomized="0"
       d="m 421.96016,-395.09292 -136.67308,78.90824 -136.67308,-78.90824 0,-157.81648 136.67308,-78.90824 136.67308,78.90824 z"
       inkscape:transform-center-x="-5.6855838e-06"
       style="stroke:none;stroke-width:0.44323564"
       inkscape:transform-center-y="-1.3096016e-05" />
    <rect
       id="rect3719"
       width="312.19067"
       height="13.007943"
       x="129.65466"
       y="-552.50854"
       style="fill:#ffffff;stroke:none;stroke-width:0.30500001;stroke-miterlimit:4;stroke-dasharray:none;stroke-opacity:1" />
    <rect
       id="rect3719-6"
       width="312.19067"
       height="13.007943"
       x="129.65466"
       y="-407.3533"
       style="fill:#ffffff;stroke:#000000;stroke-width:0.30523428;stroke-opacity:1" />
    <path
       style="stroke-width:1.723261"
       d="m 242.63882,-580.18746 c -8.67942,0 -15.6673,6.98718 -15.6673,15.66662 v 181.03866 c 0,8.67939 6.98788,15.66729 15.6673,15.66729 h 85.29656 c 8.67936,0 15.66729,-6.9879 15.66729,-15.66729 v -181.03866 c 0,-8.67944 -6.98793,-15.66662 -15.66729,-15.66662 z m 31.49316,6.01332 h 22.31023 c 0.98024,0 1.76938,0.78914 1.76938,1.76937 0,0.98028 -0.78914,1.76938 -1.76938,1.76938 h -22.31023 c -0.98025,0 -1.76938,-0.7891 -1.76938,-1.76938 0,-0.98023 0.78913,-1.76937 1.76938,-1.76937 z m -38.23935,8.78345 h 98.78892 c 3.49555,0 6.30956,2.814 6.30956,6.30957 v 164.50219 c 0,3.49558 -2.81401,6.31022 -6.30956,6.31022 h -98.78892 c -3.49556,0 -6.30955,-2.81464 -6.30955,-6.31022 v -164.50219 c 0,-3.49557 2.81399,-6.30957 6.30955,-6.30957 z m 49.39412,178.86237 a 7.6158095,7.6158095 0 0 1 7.61601,7.616 7.6158095,7.6158095 0 0 1 -7.61601,7.61533 7.6158095,7.6158095 0 0 1 -7.61602,-7.61533 7.6158095,7.6158095 0 0 1 7.61602,-7.616 z"
       id="rect10"
       inkscape:connector-curvature="0" />
    <g
       id="g5016"
       transform="translate(1.058336,2.1166674)">
      <path
         transform="matrix(0.43592911,0,0,0.43592911,-143.34141,45.234216)"
         inkscape:connector-curvature="0"
         id="path4830"
         d="m 822.67395,139.57807 c -8.11089,-2.47615 -15.95603,-8.87199 -20.44721,-16.66978 -1.15047,-1.99748 -3.87186,-8.06776 -6.04752,-13.48952 -2.17568,-5.42175 -5.00188,-11.492031 -6.28049,-13.489513 -1.27855,-1.997483 -27.58026,-28.845184 -58.44823,-59.661553 -30.86794,-30.8163682 -56.12356,-56.507547 -56.12356,-57.091512 0,-0.583966 4.38261,-5.426128 9.73912,-10.760356 l 9.73906,-9.698612 57.75914,56.162345 c 40.50281,39.383084 59.21656,56.893123 62.63731,58.608361 2.68302,1.345303 9.08072,3.971468 14.21712,5.83589 5.13641,1.864443 10.61668,4.037402 12.17843,4.828791 4.99556,2.531446 10.1853,7.806661 13.02519,13.239724 3.86969,7.403135 3.96844,18.571685 0.22904,25.900975 -6.29472,12.33792 -20.89767,19.72836 -32.1774,16.28476 z m 3.58295,-8.53511 c 2.03313,-0.92636 3.2962,-0.90658 5.474,0.0857 2.57085,1.17137 3.02738,1.04365 4.96784,-1.38992 1.35351,-1.69751 3.16853,-2.67984 4.95137,-2.67984 2.32451,0 2.81459,-0.46031 2.81459,-2.64369 0,-1.5285 1.16262,-3.72117 2.75623,-5.19806 2.40912,-2.2327 2.60814,-2.87933 1.58058,-5.13462 -0.82546,-1.81173 -0.8601,-3.41013 -0.11608,-5.36665 0.91058,-2.39496 0.68853,-3.13038 -1.58057,-5.23439 -1.45199,-1.34638 -2.64,-3.596408 -2.64,-5.000099 0,-2.019313 -0.53281,-2.552137 -2.55213,-2.552137 -1.40371,0 -3.65375,-1.187992 -5.00013,-2.64 -2.10398,-2.269086 -2.83941,-2.491169 -5.23435,-1.580607 -1.98176,0.753457 -3.56712,0.7037 -5.48972,-0.172283 -2.43485,-1.109396 -2.9067,-0.952441 -4.75188,1.580607 -1.41818,1.946855 -2.97993,2.812294 -5.07502,2.812294 -2.65168,0 -3.02641,0.374728 -3.02641,3.026401 0,2.055584 -0.85668,3.650474 -2.67054,4.971774 -2.42499,1.76649 -2.55282,2.20376 -1.38995,4.756 0.99278,2.17886 1.00534,3.41487 0.0557,5.4987 -1.08521,2.38178 -0.93445,2.91641 1.32318,4.69228 1.40141,1.10231 2.69475,3.27805 2.87409,4.83494 0.25571,2.21804 0.94459,2.90186 3.18352,3.15942 1.57157,0.1808 3.67281,1.4502 4.66947,2.82094 2.15824,2.96836 1.64439,2.82575 4.87619,1.35323 z m -294.72489,5.59602 c -11.66573,-4.15418 -23.71214,-16.62201 -27.00532,-27.95011 -3.19615,-10.99434 -5.27367,-8.28082 44.52584,-58.157012 24.64528,-24.683217 45.512,-44.8789466 46.3705,-44.8793949 3.44733,-0.00215 14.36057,-6.21450234 20.03933,-11.4080403 6.74719,-6.1705958 10.05714,-11.7225548 10.05714,-16.8692518 0,-2.716579 0.98101,-4.419884 4.57982,-7.951851 l 4.5798,-4.494743 4.95702,1.689017 c 2.72632,0.928967 7.25024,3.622714 10.05306,5.986107 l 5.09613,4.297103 73.10272,-73.046177 c 44.32603,-44.291767 76.65564,-77.448807 82.12842,-84.230357 5.74919,-7.12415 12.84251,-14.33895 19.53992,-19.87465 l 10.51423,-8.69051 4.84384,4.9178 4.84384,4.91778 -8.34704,10.25362 c -5.17663,6.35906 -12.19233,13.34957 -18.47103,18.40473 -5.56823,4.48312 -43.59353,41.58548 -84.50076,82.449677 l -74.37671,74.29854 4.44393,5.2659898 c 2.44417,2.896278 5.21609,7.57892396 6.15984,10.405868 l 1.71593,5.1399105 -4.3756,4.4583967 c -3.69341,3.763286 -5.01526,4.458409 -8.47841,4.458409 -5.64334,0 -11.99093,3.965473 -17.88729,11.17456 -5.14662,6.292402 -9.71806,14.934313 -9.73496,18.403079 -0.008,1.350613 -15.74456,17.808472 -44.88871,46.941993 -43.87847,43.862437 -44.98265,44.874477 -49.54803,45.413817 -3.10755,0.36713 -6.43155,-0.0759 -9.93745,-1.3243 z m 92.5621,-207.712627 c -24.8171,-24.945326 -38.54621,-37.994053 -41.45842,-39.403823 -4.94266,-2.39269 -13.06785,-4.23181 -32.00088,-7.24337 -7.22933,-1.14992 -15.2661,-3.08815 -17.85949,-4.30719 -10.10499,-4.74991 -24.63819,-23.41414 -27.6872,-35.55729 -2.31759,-9.22988 1.16132,-8.56859 17.6042,3.34639 4.85388,3.51727 9.81479,6.31929 11.18813,6.31929 6.41207,0 15.99199,-6.99076 18.02613,-13.15419 1.50651,-4.56476 1.49234,-17.14911 -0.0235,-19.9796 -0.61268,-1.14475 -3.32334,-3.34959 -6.02373,-4.89965 -11.43641,-6.56469 -20.9934,-13.10488 -20.9934,-14.36654 0,-3.53461 17.35758,-5.69349 29.97164,-3.72777 10.79697,1.68255 16.99015,4.63979 22.46163,10.72539 6.37291,7.08823 10.05914,15.45666 14.03169,31.85454 2.18686,9.02705 4.85583,16.89964 7.56292,22.30823 4.72472,9.43976 7.1978,12.06185 55.16013,58.484138 l 28.01668,27.117066 -9.8372,9.890214 c -5.4105,5.43961 -10.10695,9.890213 -10.43662,9.890213 -0.32983,0 -17.29636,-16.783235 -37.70376,-37.296048 z"
         style="fill:#000000;stroke-width:1.03765488;filter:url(#filter4850)" />
      <g
         transform="matrix(0.43592911,0,0,0.43592911,-141.22474,47.350883)"
         id="g4944">
        <path
           sodipodi:type="star"
           id="path3717-2"
           sodipodi:sides="6"
           sodipodi:cx="680.354"
           sodipodi:cy="-34.258305"
           sodipodi:r1="157.81648"
           sodipodi:r2="136.6731"
           sodipodi:arg1="0.52359878"
           sodipodi:arg2="1.0471976"
           inkscape:flatsided="true"
           inkscape:rounded="0"
           inkscape:randomized="0"
           d="M 817.02709,44.649937 680.354,123.55818 543.68092,44.649936 l 0,-157.816486 136.67308,-78.90824 136.67309,78.90824 z"
           inkscape:transform-center-x="-5.6855838e-06"
           style="stroke:none;stroke-width:0.44323564;filter:url(#filter4890)"
           inkscape:transform-center-y="-1.3096016e-05" />
        <path
           style="fill:#ff0000;stroke:none;stroke-width:0.87142855;stroke-miterlimit:4;stroke-dasharray:none;stroke-opacity:1;filter:url(#filter4870)"
           d="M 543.52663,-34.258304 V -100.02616 H 680.35401 817.18138 V -34.258304 31.50955 H 680.35401 543.52663 Z"
           id="path4558"
           inkscape:connector-curvature="0" />
        <path
           style="fill:#008000;stroke:none;stroke-width:0.87142855;stroke-miterlimit:4;stroke-dasharray:none;stroke-opacity:1;filter:url(#filter4910)"
           d="M 543.52663,31.50955 H 817.18138 L 817.02709,44.649937 684.62531,121.1365 680.354,123.55818 543.68092,44.649936 Z"
           id="path4560"
           inkscape:connector-curvature="0"
           sodipodi:nodetypes="ccccccc" />
        <path
           style="fill:#ffffff;stroke-width:1.723261;filter:url(#filter4930)"
           d="m 637.86003,-140.44459 c -8.67942,0 -15.6673,6.98718 -15.6673,15.66661 V 56.260693 c 0,8.679389 6.98788,15.667289 15.6673,15.667289 h 85.29655 c 8.67936,0 15.66729,-6.9879 15.66729,-15.667289 V -124.77798 c 0,-8.67943 -6.98793,-15.66661 -15.66729,-15.66661 z m 31.49315,6.01331 h 22.31023 c 0.98024,0 1.76938,0.78914 1.76938,1.76938 0,0.98028 -0.78914,1.76938 -1.76938,1.76938 h -22.31023 c -0.98025,0 -1.76938,-0.7891 -1.76938,-1.76938 0,-0.98024 0.78913,-1.76938 1.76938,-1.76938 z m -38.23934,8.78346 h 98.78891 c 3.49555,0 6.30956,2.814 6.30956,6.30957 V 45.163941 c 0,3.495579 -2.81401,6.31022 -6.30956,6.31022 h -98.78891 c -3.49556,0 -6.30955,-2.814641 -6.30955,-6.31022 V -119.33825 c 0,-3.49557 2.81399,-6.30957 6.30955,-6.30957 z m 49.39411,178.862373 a 7.6158095,7.6158095 0 0 1 7.61601,7.615999 7.6158095,7.6158095 0 0 1 -7.61601,7.61533 7.6158095,7.6158095 0 0 1 -7.61602,-7.61533 7.6158095,7.6158095 0 0 1 7.61602,-7.615999 z"
           id="rect10-9"
           inkscape:connector-curvature="0" />
      </g>
      <text
         id="text4934"
         y="34.80233"
         x="254.40669"
         style="font-style:normal;font-weight:normal;font-size:104.33289337px;line-height:1.25;font-family:sans-serif;letter-spacing:0px;word-spacing:0px;fill:url(#linearGradient4974);fill-opacity:1;stroke:none;stroke-width:0.54340053"
         xml:space="preserve"><tspan
           style="font-style:normal;font-variant:normal;font-weight:normal;font-stretch:normal;font-family:Uroob;-inkscape-font-specification:Uroob;fill:url(#linearGradient4974);fill-opacity:1;stroke-width:0.54340053"
           y="34.80233"
           x="254.40669"
           id="tspan4932"
           sodipodi:role="line">PHONE</tspan></text>
      <text
         id="text4938"
         y="70.715698"
         x="257.36807"
         style="font-style:normal;font-weight:normal;font-size:40.76105499px;line-height:1.25;font-family:sans-serif;letter-spacing:0px;word-spacing:0px;fill:url(#linearGradient4982);fill-opacity:1;stroke:none;stroke-width:0.21229714"
         xml:space="preserve"><tspan
           style="font-style:normal;font-variant:normal;font-weight:normal;font-stretch:normal;font-family:Uroob;-inkscape-font-specification:Uroob;letter-spacing:6.68940353px;word-spacing:13.31225777px;fill:url(#linearGradient4982);fill-opacity:1;stroke-width:0.21229714"
           y="70.715698"
           x="257.36807"
           id="tspan4936"
           sodipodi:role="line">FIX KENYA</tspan></text>
    </g>
  </g>
</svg>
